<mxfile host="app.diagrams.net" modified="2023-06-19T06:59:27.865Z" agent="Mozilla/5.0 (Macintosh; Intel Mac OS X 10_15_7) AppleWebKit/537.36 (KHTML, like Gecko) Chrome/114.0.0.0 Safari/537.36" etag="zW8d9ssXVgCQsaFTmJis" version="21.4.0">
  <diagram name="Page-1" id="uu7S-NdO_Cgf8R5Oe8tK">
    <mxGraphModel dx="2128" dy="1986" grid="1" gridSize="10" guides="1" tooltips="1" connect="1" arrows="1" fold="1" page="1" pageScale="1" pageWidth="827" pageHeight="1169" math="0" shadow="0">
      <root>
        <mxCell id="0" />
        <mxCell id="1" parent="0" />
        <mxCell id="IuKPgceZkq_eHcOhpiaI-1" value="&lt;font style=&quot;font-size: 17px;&quot;&gt;department&amp;nbsp;&lt;/font&gt;" style="whiteSpace=wrap;html=1;align=center;fillColor=#d80073;fontColor=#ffffff;strokeColor=#A50040;" parent="1" vertex="1">
          <mxGeometry x="280" y="190" width="140" height="70" as="geometry" />
        </mxCell>
        <mxCell id="IuKPgceZkq_eHcOhpiaI-2" value="" style="line;strokeWidth=1;rotatable=0;dashed=0;labelPosition=right;align=left;verticalAlign=middle;spacingTop=0;spacingLeft=6;points=[];portConstraint=eastwest;" parent="1" vertex="1">
          <mxGeometry x="420" y="215" width="110" height="10" as="geometry" />
        </mxCell>
        <mxCell id="IuKPgceZkq_eHcOhpiaI-7" value="" style="edgeStyle=orthogonalEdgeStyle;rounded=0;orthogonalLoop=1;jettySize=auto;html=1;" parent="1" source="IuKPgceZkq_eHcOhpiaI-3" target="IuKPgceZkq_eHcOhpiaI-2" edge="1">
          <mxGeometry relative="1" as="geometry">
            <Array as="points">
              <mxPoint x="560" y="220" />
            </Array>
          </mxGeometry>
        </mxCell>
        <mxCell id="IuKPgceZkq_eHcOhpiaI-3" value="&lt;font style=&quot;font-size: 16px;&quot;&gt;department maneger&lt;/font&gt;" style="ellipse;whiteSpace=wrap;html=1;align=center;fillColor=#60a917;fontColor=#ffffff;strokeColor=#2D7600;" parent="1" vertex="1">
          <mxGeometry x="510" y="80" width="100" height="70" as="geometry" />
        </mxCell>
        <mxCell id="IuKPgceZkq_eHcOhpiaI-8" style="edgeStyle=orthogonalEdgeStyle;rounded=0;orthogonalLoop=1;jettySize=auto;html=1;exitX=1;exitY=0.75;exitDx=0;exitDy=0;" parent="1" source="IuKPgceZkq_eHcOhpiaI-1" target="IuKPgceZkq_eHcOhpiaI-9" edge="1">
          <mxGeometry relative="1" as="geometry">
            <mxPoint x="720" y="240" as="targetPoint" />
            <mxPoint x="470" y="240" as="sourcePoint" />
            <Array as="points">
              <mxPoint x="420" y="240" />
              <mxPoint x="690" y="240" />
            </Array>
          </mxGeometry>
        </mxCell>
        <mxCell id="IuKPgceZkq_eHcOhpiaI-9" value="&lt;font style=&quot;font-size: 16px;&quot;&gt;Name&amp;nbsp;&lt;/font&gt;" style="ellipse;whiteSpace=wrap;html=1;align=center;fillColor=#60a917;fontColor=#ffffff;strokeColor=#2D7600;" parent="1" vertex="1">
          <mxGeometry x="640" y="80" width="100" height="70" as="geometry" />
        </mxCell>
        <mxCell id="IuKPgceZkq_eHcOhpiaI-15" value="" style="line;strokeWidth=1;rotatable=0;dashed=0;labelPosition=right;align=left;verticalAlign=middle;spacingTop=0;spacingLeft=6;points=[];portConstraint=eastwest;" parent="1" vertex="1">
          <mxGeometry x="230" y="320" width="60" as="geometry" />
        </mxCell>
        <mxCell id="IuKPgceZkq_eHcOhpiaI-16" value="" style="endArrow=none;html=1;rounded=0;exitX=1;exitY=1;exitDx=0;exitDy=0;" parent="1" source="IuKPgceZkq_eHcOhpiaI-1" edge="1">
          <mxGeometry width="50" height="50" relative="1" as="geometry">
            <mxPoint x="450" y="310" as="sourcePoint" />
            <mxPoint x="800" y="260" as="targetPoint" />
          </mxGeometry>
        </mxCell>
        <mxCell id="IuKPgceZkq_eHcOhpiaI-18" value="" style="endArrow=none;html=1;rounded=0;" parent="1" edge="1">
          <mxGeometry width="50" height="50" relative="1" as="geometry">
            <mxPoint x="800" y="260" as="sourcePoint" />
            <mxPoint x="800" y="170" as="targetPoint" />
          </mxGeometry>
        </mxCell>
        <mxCell id="IuKPgceZkq_eHcOhpiaI-19" value="&lt;font style=&quot;font-size: 16px;&quot;&gt;Number&lt;/font&gt;" style="ellipse;whiteSpace=wrap;html=1;align=center;fillColor=#60a917;fontColor=#ffffff;strokeColor=#2D7600;" parent="1" vertex="1">
          <mxGeometry x="750" y="80" width="100" height="80" as="geometry" />
        </mxCell>
        <mxCell id="IuKPgceZkq_eHcOhpiaI-28" value="" style="endArrow=none;html=1;rounded=0;entryX=0;entryY=0.5;entryDx=0;entryDy=0;" parent="1" target="IuKPgceZkq_eHcOhpiaI-1" edge="1">
          <mxGeometry width="50" height="50" relative="1" as="geometry">
            <mxPoint x="200" y="225" as="sourcePoint" />
            <mxPoint x="500" y="260" as="targetPoint" />
          </mxGeometry>
        </mxCell>
        <mxCell id="IuKPgceZkq_eHcOhpiaI-31" value="&lt;font style=&quot;font-size: 16px;&quot;&gt;Project&amp;nbsp;&lt;/font&gt;" style="rounded=1;arcSize=10;whiteSpace=wrap;html=1;align=center;fillColor=#d80073;fontColor=#ffffff;strokeColor=#A50040;" parent="1" vertex="1">
          <mxGeometry x="70" y="410" width="150" height="70" as="geometry" />
        </mxCell>
        <mxCell id="IuKPgceZkq_eHcOhpiaI-32" value="" style="endArrow=none;html=1;rounded=0;exitX=0.653;exitY=1.025;exitDx=0;exitDy=0;exitPerimeter=0;" parent="1" source="IuKPgceZkq_eHcOhpiaI-31" edge="1">
          <mxGeometry width="50" height="50" relative="1" as="geometry">
            <mxPoint x="240" y="655" as="sourcePoint" />
            <mxPoint x="380" y="655" as="targetPoint" />
          </mxGeometry>
        </mxCell>
        <mxCell id="IuKPgceZkq_eHcOhpiaI-33" value="&lt;font style=&quot;font-size: 16px;&quot;&gt;Loction&amp;nbsp;&lt;/font&gt;" style="ellipse;whiteSpace=wrap;html=1;align=center;fillColor=#60a917;fontColor=#ffffff;strokeColor=#2D7600;" parent="1" vertex="1">
          <mxGeometry x="380" y="620" width="100" height="80" as="geometry" />
        </mxCell>
        <mxCell id="IuKPgceZkq_eHcOhpiaI-34" value="" style="endArrow=none;html=1;rounded=0;" parent="1" edge="1">
          <mxGeometry width="50" height="50" relative="1" as="geometry">
            <mxPoint x="470" y="520" as="sourcePoint" />
            <mxPoint x="220" y="480" as="targetPoint" />
          </mxGeometry>
        </mxCell>
        <mxCell id="IuKPgceZkq_eHcOhpiaI-35" value="&lt;font style=&quot;font-size: 16px;&quot;&gt;Name&amp;nbsp;&lt;/font&gt;" style="ellipse;whiteSpace=wrap;html=1;align=center;fillColor=#60a917;fontColor=#ffffff;strokeColor=#2D7600;" parent="1" vertex="1">
          <mxGeometry x="470" y="490" width="100" height="70" as="geometry" />
        </mxCell>
        <mxCell id="IuKPgceZkq_eHcOhpiaI-36" value="" style="endArrow=none;html=1;rounded=0;" parent="1" edge="1">
          <mxGeometry width="50" height="50" relative="1" as="geometry">
            <mxPoint x="560" y="620" as="sourcePoint" />
            <mxPoint x="200" y="480" as="targetPoint" />
          </mxGeometry>
        </mxCell>
        <mxCell id="IuKPgceZkq_eHcOhpiaI-37" value="&lt;font style=&quot;font-size: 16px;&quot;&gt;number&amp;nbsp;&lt;/font&gt;" style="ellipse;whiteSpace=wrap;html=1;align=center;fillColor=#60a917;fontColor=#ffffff;strokeColor=#2D7600;" parent="1" vertex="1">
          <mxGeometry x="560" y="585" width="100" height="70" as="geometry" />
        </mxCell>
        <mxCell id="IuKPgceZkq_eHcOhpiaI-38" value="&lt;font style=&quot;font-size: 16px;&quot;&gt;employees&lt;/font&gt;&amp;nbsp;" style="whiteSpace=wrap;html=1;align=center;fillColor=#d80073;fontColor=#ffffff;strokeColor=#A50040;" parent="1" vertex="1">
          <mxGeometry x="-210" y="185" width="150" height="80" as="geometry" />
        </mxCell>
        <mxCell id="IuKPgceZkq_eHcOhpiaI-39" value="" style="endArrow=none;html=1;rounded=0;exitX=1;exitY=0.5;exitDx=0;exitDy=0;entryX=0;entryY=0.5;entryDx=0;entryDy=0;" parent="1" source="IuKPgceZkq_eHcOhpiaI-38" edge="1">
          <mxGeometry width="50" height="50" relative="1" as="geometry">
            <mxPoint x="170" y="400" as="sourcePoint" />
            <mxPoint x="85" y="220" as="targetPoint" />
          </mxGeometry>
        </mxCell>
        <mxCell id="IuKPgceZkq_eHcOhpiaI-40" value="" style="endArrow=none;html=1;rounded=0;" parent="1" edge="1">
          <mxGeometry width="50" height="50" relative="1" as="geometry">
            <mxPoint x="-160" y="180" as="sourcePoint" />
            <mxPoint x="-160" y="20" as="targetPoint" />
            <Array as="points" />
          </mxGeometry>
        </mxCell>
        <mxCell id="IuKPgceZkq_eHcOhpiaI-41" value="" style="endArrow=none;html=1;rounded=0;" parent="1" edge="1">
          <mxGeometry width="50" height="50" relative="1" as="geometry">
            <mxPoint x="-320" y="220" as="sourcePoint" />
            <mxPoint x="-210" y="220" as="targetPoint" />
          </mxGeometry>
        </mxCell>
        <mxCell id="IuKPgceZkq_eHcOhpiaI-42" value="" style="endArrow=none;html=1;rounded=0;" parent="1" edge="1">
          <mxGeometry width="50" height="50" relative="1" as="geometry">
            <mxPoint x="-320" y="60" as="sourcePoint" />
            <mxPoint x="-210" y="190" as="targetPoint" />
          </mxGeometry>
        </mxCell>
        <mxCell id="IuKPgceZkq_eHcOhpiaI-43" value="" style="endArrow=none;html=1;rounded=0;" parent="1" edge="1">
          <mxGeometry width="50" height="50" relative="1" as="geometry">
            <mxPoint x="-320" y="320" as="sourcePoint" />
            <mxPoint x="-210" y="260" as="targetPoint" />
          </mxGeometry>
        </mxCell>
        <mxCell id="IuKPgceZkq_eHcOhpiaI-44" value="&lt;font style=&quot;font-size: 16px;&quot;&gt;Ssn&lt;/font&gt;" style="ellipse;whiteSpace=wrap;html=1;align=center;dashed=1;fillColor=#60a917;fontColor=#ffffff;strokeColor=#2D7600;" parent="1" vertex="1">
          <mxGeometry x="-413" y="300" width="100" height="70" as="geometry" />
        </mxCell>
        <mxCell id="IuKPgceZkq_eHcOhpiaI-45" value="&lt;font style=&quot;font-size: 16px;&quot;&gt;salary&amp;nbsp;&lt;/font&gt;" style="ellipse;whiteSpace=wrap;html=1;align=center;dashed=1;fillColor=#60a917;fontColor=#ffffff;strokeColor=#2D7600;" parent="1" vertex="1">
          <mxGeometry x="-413" y="20" width="100" height="70" as="geometry" />
        </mxCell>
        <mxCell id="IuKPgceZkq_eHcOhpiaI-46" value="&lt;font style=&quot;font-size: 16px;&quot;&gt;birthday&amp;nbsp;&lt;/font&gt;" style="ellipse;whiteSpace=wrap;html=1;align=center;dashed=1;fillColor=#60a917;fontColor=#ffffff;strokeColor=#2D7600;" parent="1" vertex="1">
          <mxGeometry x="-420" y="170" width="100" height="70" as="geometry" />
        </mxCell>
        <mxCell id="IuKPgceZkq_eHcOhpiaI-48" value="&lt;font style=&quot;font-size: 16px;&quot;&gt;Sex&amp;nbsp;&lt;/font&gt;" style="ellipse;whiteSpace=wrap;html=1;align=center;fillColor=#60a917;fontColor=#ffffff;strokeColor=#2D7600;" parent="1" vertex="1">
          <mxGeometry x="-210" y="-30" width="100" height="60" as="geometry" />
        </mxCell>
        <mxCell id="IuKPgceZkq_eHcOhpiaI-50" value="" style="endArrow=none;html=1;rounded=0;" parent="1" edge="1">
          <mxGeometry width="50" height="50" relative="1" as="geometry">
            <mxPoint x="-160" y="390" as="sourcePoint" />
            <mxPoint x="-160" y="270" as="targetPoint" />
          </mxGeometry>
        </mxCell>
        <mxCell id="IuKPgceZkq_eHcOhpiaI-51" value="&lt;font style=&quot;font-size: 16px;&quot;&gt;Address&lt;/font&gt;" style="ellipse;whiteSpace=wrap;html=1;align=center;fillColor=#60a917;fontColor=#ffffff;strokeColor=#2D7600;" parent="1" vertex="1">
          <mxGeometry x="-210" y="370" width="100" height="60" as="geometry" />
        </mxCell>
        <mxCell id="IuKPgceZkq_eHcOhpiaI-56" value="" style="endArrow=none;html=1;rounded=0;" parent="1" edge="1">
          <mxGeometry width="50" height="50" relative="1" as="geometry">
            <mxPoint x="-50" y="270" as="sourcePoint" />
            <mxPoint y="320" as="targetPoint" />
          </mxGeometry>
        </mxCell>
        <mxCell id="IuKPgceZkq_eHcOhpiaI-57" value="" style="endArrow=none;html=1;rounded=0;exitX=0;exitY=0.5;exitDx=0;exitDy=0;" parent="1" source="IuKPgceZkq_eHcOhpiaI-31" edge="1">
          <mxGeometry width="50" height="50" relative="1" as="geometry">
            <mxPoint x="-50" y="430" as="sourcePoint" />
            <mxPoint y="380" as="targetPoint" />
          </mxGeometry>
        </mxCell>
        <mxCell id="IuKPgceZkq_eHcOhpiaI-95" value="&lt;font style=&quot;font-size: 17px;&quot;&gt;M&lt;/font&gt;" style="edgeLabel;html=1;align=center;verticalAlign=middle;resizable=0;points=[];" parent="IuKPgceZkq_eHcOhpiaI-57" vertex="1" connectable="0">
          <mxGeometry x="0.0667" y="-4" relative="1" as="geometry">
            <mxPoint as="offset" />
          </mxGeometry>
        </mxCell>
        <mxCell id="IuKPgceZkq_eHcOhpiaI-58" value="&lt;font style=&quot;font-size: 17px;&quot;&gt;1&lt;/font&gt;" style="text;html=1;align=center;verticalAlign=middle;resizable=0;points=[];autosize=1;strokeColor=none;fillColor=none;" parent="1" vertex="1">
          <mxGeometry x="5" y="195" width="30" height="30" as="geometry" />
        </mxCell>
        <mxCell id="IuKPgceZkq_eHcOhpiaI-59" value="&lt;font style=&quot;font-size: 17px;&quot;&gt;M&lt;/font&gt;" style="text;html=1;align=center;verticalAlign=middle;resizable=0;points=[];autosize=1;strokeColor=none;fillColor=none;" parent="1" vertex="1">
          <mxGeometry x="220" y="195" width="40" height="30" as="geometry" />
        </mxCell>
        <mxCell id="IuKPgceZkq_eHcOhpiaI-66" value="" style="endArrow=none;html=1;rounded=0;exitX=1;exitY=0.5;exitDx=0;exitDy=0;" parent="1" source="IuKPgceZkq_eHcOhpiaI-38" edge="1">
          <mxGeometry width="50" height="50" relative="1" as="geometry">
            <mxPoint x="-10" y="225" as="sourcePoint" />
            <mxPoint x="240" y="-25" as="targetPoint" />
          </mxGeometry>
        </mxCell>
        <mxCell id="IuKPgceZkq_eHcOhpiaI-68" value="&lt;font style=&quot;font-size: 16px;&quot;&gt;dependent&lt;/font&gt;" style="whiteSpace=wrap;html=1;align=center;fillColor=#d80073;fontColor=#ffffff;strokeColor=#A50040;" parent="1" vertex="1">
          <mxGeometry x="-190" y="-440" width="140" height="70" as="geometry" />
        </mxCell>
        <mxCell id="IuKPgceZkq_eHcOhpiaI-69" value="" style="endArrow=none;html=1;rounded=0;entryX=0;entryY=0.5;entryDx=0;entryDy=0;exitX=0.93;exitY=1.014;exitDx=0;exitDy=0;exitPerimeter=0;" parent="1" source="IuKPgceZkq_eHcOhpiaI-68" edge="1">
          <mxGeometry width="50" height="50" relative="1" as="geometry">
            <mxPoint x="-30" y="-340" as="sourcePoint" />
            <mxPoint x="180" y="-59.99999999999977" as="targetPoint" />
          </mxGeometry>
        </mxCell>
        <mxCell id="IuKPgceZkq_eHcOhpiaI-70" value="&lt;font style=&quot;font-size: 16px;&quot;&gt;Sex&lt;/font&gt;" style="ellipse;whiteSpace=wrap;html=1;align=center;fillColor=#60a917;fontColor=#ffffff;strokeColor=#2D7600;" parent="1" vertex="1">
          <mxGeometry x="70" y="-450" width="100" height="65" as="geometry" />
        </mxCell>
        <mxCell id="IuKPgceZkq_eHcOhpiaI-71" value="&lt;font style=&quot;font-size: 16px;&quot;&gt;Name&amp;nbsp;&lt;/font&gt;" style="ellipse;whiteSpace=wrap;html=1;align=center;fillColor=#60a917;fontColor=#ffffff;strokeColor=#2D7600;" parent="1" vertex="1">
          <mxGeometry x="70" y="-350" width="100" height="70" as="geometry" />
        </mxCell>
        <mxCell id="IuKPgceZkq_eHcOhpiaI-72" value="&lt;font style=&quot;font-size: 16px;&quot;&gt;birthday&lt;/font&gt;" style="ellipse;whiteSpace=wrap;html=1;align=center;fillColor=#60a917;fontColor=#ffffff;strokeColor=#2D7600;" parent="1" vertex="1">
          <mxGeometry x="70" y="-550" width="100" height="70" as="geometry" />
        </mxCell>
        <mxCell id="IuKPgceZkq_eHcOhpiaI-73" style="edgeStyle=orthogonalEdgeStyle;rounded=0;orthogonalLoop=1;jettySize=auto;html=1;exitX=0.5;exitY=1;exitDx=0;exitDy=0;" parent="1" source="IuKPgceZkq_eHcOhpiaI-70" target="IuKPgceZkq_eHcOhpiaI-70" edge="1">
          <mxGeometry relative="1" as="geometry" />
        </mxCell>
        <mxCell id="IuKPgceZkq_eHcOhpiaI-81" style="edgeStyle=orthogonalEdgeStyle;rounded=0;orthogonalLoop=1;jettySize=auto;html=1;" parent="1" edge="1">
          <mxGeometry relative="1" as="geometry">
            <mxPoint x="120.23076923076906" y="-700" as="targetPoint" />
            <mxPoint x="130" y="-700" as="sourcePoint" />
          </mxGeometry>
        </mxCell>
        <mxCell id="IuKPgceZkq_eHcOhpiaI-74" value="&lt;font style=&quot;font-size: 15px;&quot;&gt;Relationship to&lt;br&gt;empoyee&lt;/font&gt;" style="ellipse;whiteSpace=wrap;html=1;align=center;fillColor=#60a917;fontColor=#ffffff;strokeColor=#2D7600;" parent="1" vertex="1">
          <mxGeometry x="50" y="-700" width="130" height="100" as="geometry" />
        </mxCell>
        <mxCell id="IuKPgceZkq_eHcOhpiaI-79" value="" style="endArrow=none;html=1;rounded=0;exitX=-0.021;exitY=0.366;exitDx=0;exitDy=0;exitPerimeter=0;" parent="1" source="IuKPgceZkq_eHcOhpiaI-71" target="IuKPgceZkq_eHcOhpiaI-74" edge="1">
          <mxGeometry width="50" height="50" relative="1" as="geometry">
            <mxPoint x="120" y="-380" as="sourcePoint" />
            <mxPoint x="170" y="-430" as="targetPoint" />
            <Array as="points">
              <mxPoint x="-50" y="-440" />
            </Array>
          </mxGeometry>
        </mxCell>
        <mxCell id="IuKPgceZkq_eHcOhpiaI-80" value="" style="endArrow=none;html=1;rounded=0;entryX=0;entryY=0.5;entryDx=0;entryDy=0;" parent="1" source="IuKPgceZkq_eHcOhpiaI-70" target="IuKPgceZkq_eHcOhpiaI-72" edge="1">
          <mxGeometry width="50" height="50" relative="1" as="geometry">
            <mxPoint x="120" y="-380" as="sourcePoint" />
            <mxPoint x="60" y="-500" as="targetPoint" />
            <Array as="points">
              <mxPoint x="-50" y="-440" />
            </Array>
          </mxGeometry>
        </mxCell>
        <mxCell id="IuKPgceZkq_eHcOhpiaI-86" value="" style="endArrow=none;html=1;rounded=0;" parent="1" edge="1">
          <mxGeometry width="50" height="50" relative="1" as="geometry">
            <mxPoint x="230" y="410" as="sourcePoint" />
            <mxPoint x="370" y="400" as="targetPoint" />
          </mxGeometry>
        </mxCell>
        <mxCell id="IuKPgceZkq_eHcOhpiaI-88" value="Relationship" style="shape=rhombus;perimeter=rhombusPerimeter;whiteSpace=wrap;html=1;align=center;fillColor=#6a00ff;fontColor=#ffffff;strokeColor=#3700CC;" parent="1" vertex="1">
          <mxGeometry x="310" y="340" width="120" height="60" as="geometry" />
        </mxCell>
        <mxCell id="IuKPgceZkq_eHcOhpiaI-89" value="&lt;font style=&quot;font-size: 16px;&quot;&gt;Relationship&lt;/font&gt;" style="shape=rhombus;perimeter=rhombusPerimeter;whiteSpace=wrap;html=1;align=center;fillColor=#6a00ff;fontColor=#ffffff;strokeColor=#3700CC;" parent="1" vertex="1">
          <mxGeometry x="85" y="195" width="120" height="60" as="geometry" />
        </mxCell>
        <mxCell id="IuKPgceZkq_eHcOhpiaI-90" value="&lt;font style=&quot;font-size: 16px;&quot;&gt;Relationship&lt;/font&gt;" style="shape=rhombus;perimeter=rhombusPerimeter;whiteSpace=wrap;html=1;align=center;fillColor=#6a00ff;fontColor=#ffffff;strokeColor=#3700CC;" parent="1" vertex="1">
          <mxGeometry x="180" y="-90" width="120" height="60" as="geometry" />
        </mxCell>
        <mxCell id="IuKPgceZkq_eHcOhpiaI-91" value="&lt;font style=&quot;font-size: 16px;&quot;&gt;Relationship&lt;/font&gt;" style="shape=rhombus;perimeter=rhombusPerimeter;whiteSpace=wrap;html=1;align=center;fillColor=#6a00ff;fontColor=#ffffff;strokeColor=#3700CC;" parent="1" vertex="1">
          <mxGeometry x="-60" y="320" width="120" height="60" as="geometry" />
        </mxCell>
        <mxCell id="IuKPgceZkq_eHcOhpiaI-92" value="" style="endArrow=none;html=1;rounded=0;entryX=0.595;entryY=1.036;entryDx=0;entryDy=0;entryPerimeter=0;" parent="1" target="IuKPgceZkq_eHcOhpiaI-1" edge="1">
          <mxGeometry width="50" height="50" relative="1" as="geometry">
            <mxPoint x="370" y="340" as="sourcePoint" />
            <mxPoint x="420" y="290" as="targetPoint" />
          </mxGeometry>
        </mxCell>
        <mxCell id="IuKPgceZkq_eHcOhpiaI-93" value="&lt;font style=&quot;font-size: 17px;&quot;&gt;1&lt;/font&gt;" style="text;html=1;align=center;verticalAlign=middle;resizable=0;points=[];autosize=1;strokeColor=none;fillColor=none;" parent="1" vertex="1">
          <mxGeometry x="335" y="288" width="30" height="30" as="geometry" />
        </mxCell>
        <mxCell id="IuKPgceZkq_eHcOhpiaI-94" value="&lt;font style=&quot;font-size: 17px;&quot;&gt;M&lt;/font&gt;" style="text;html=1;align=center;verticalAlign=middle;resizable=0;points=[];autosize=1;strokeColor=none;fillColor=none;strokeWidth=17;" parent="1" vertex="1">
          <mxGeometry x="250" y="368" width="40" height="30" as="geometry" />
        </mxCell>
        <mxCell id="IuKPgceZkq_eHcOhpiaI-96" value="&lt;font style=&quot;font-size: 18px;&quot;&gt;1&lt;/font&gt;" style="text;html=1;align=center;verticalAlign=middle;resizable=0;points=[];autosize=1;strokeColor=none;fillColor=none;" parent="1" vertex="1">
          <mxGeometry x="-25" y="273" width="30" height="40" as="geometry" />
        </mxCell>
      </root>
    </mxGraphModel>
  </diagram>
</mxfile>
